<?xml version="1.0" encoding="UTF-8"?><svg xmlns="http://www.w3.org/2000/svg" xmlns:xlink="http://www.w3.org/1999/xlink" fill-opacity="1" color-rendering="auto" color-interpolation="auto" text-rendering="auto" stroke="black" stroke-linecap="square" width="487" stroke-miterlimit="10" shape-rendering="auto" stroke-opacity="1" fill="black" stroke-dasharray="none" font-weight="normal" stroke-width="1" height="104" font-family="'Dialog'" font-style="normal" stroke-linejoin="miter" font-size="12px" stroke-dashoffset="0" image-rendering="auto">
  <!--Generated by ySVG 2.5-->
  <defs id="genericDefs"/>
  <g>
    <defs id="defs1">
      <clipPath clipPathUnits="userSpaceOnUse" id="clipPath1">
        <path d="M0 0 L487 0 L487 104 L0 104 L0 0 Z"/>
      </clipPath>
      <clipPath clipPathUnits="userSpaceOnUse" id="clipPath2">
        <path d="M204 218 L691 218 L691 322 L204 322 L204 218 Z"/>
      </clipPath>
    </defs>
    <g fill="rgb(66,139,202)" text-rendering="geometricPrecision" shape-rendering="geometricPrecision" transform="matrix(1,0,0,1,-204,-218)" stroke="rgb(66,139,202)">
      <rect x="388.375" width="123.25" height="74" y="233" clip-path="url(#clipPath2)" stroke="none"/>
    </g>
    <g text-rendering="geometricPrecision" stroke-miterlimit="1.45" shape-rendering="geometricPrecision" font-family="sans-serif" transform="matrix(1,0,0,1,-204,-218)" stroke-linecap="butt">
      <text x="447.8877" xml:space="preserve" y="274.1543" clip-path="url(#clipPath2)" stroke="none">f</text>
      <rect fill="none" x="388.375" width="123.25" height="74" y="233" clip-path="url(#clipPath2)"/>
      <text x="265.2139" xml:space="preserve" y="274.1543" clip-path="url(#clipPath2)" stroke="none">Input</text>
      <text x="593.0332" xml:space="preserve" y="274.1543" clip-path="url(#clipPath2)" stroke="none">Output</text>
      <path fill="none" d="M342.375 270 L380.375 270" clip-path="url(#clipPath2)"/>
      <path d="M388.375 270 L376.375 265 L379.375 270 L376.375 275 Z" clip-path="url(#clipPath2)" stroke="none"/>
      <path fill="none" d="M511.625 270 L544.25 270" clip-path="url(#clipPath2)"/>
      <path d="M552.25 270 L540.25 265 L543.25 270 L540.25 275 Z" clip-path="url(#clipPath2)" stroke="none"/>
    </g>
  </g>
</svg>
